<svg width="50" height="40" viewBox="0 0 50 40" fill="none" xmlns="http://www.w3.org/2000/svg">
<g clip-path="url(#clip0_10_579)">
<path d="M31.822 7.94256C30.8801 7.00046 29.3527 7.00046 28.4114 7.94256L13.0619 23.2923C11.1771 25.1755 8.12345 25.1755 6.24004 23.2923C4.35467 21.4083 4.35467 18.3543 6.24004 16.4693L21.2941 1.41583C19.4103 -0.468559 16.3555 -0.468559 14.4717 1.41583L2.82786 13.0593C-0.939364 16.8273 -0.939364 22.9353 2.82786 26.7037C6.59606 30.4719 12.7039 30.4719 16.4721 26.7037L31.822 11.3538C32.7633 10.4119 32.7633 8.88447 31.822 7.94256ZM36.9385 2.82644C33.1703 -0.942148 27.0625 -0.942148 23.2943 2.82644L7.94515 18.1754C7.00383 19.1167 7.00383 20.6451 7.94515 21.5866C8.88705 22.5285 10.4137 22.5285 11.3558 21.5866L26.7063 6.23765C28.5901 4.35325 31.6437 4.35325 33.5271 6.23765C34.47 7.17896 35.9968 7.17896 36.9387 6.23765C37.8806 5.29477 37.8806 3.76835 36.9387 2.82644H36.9385ZM42.0554 18.1754C41.1135 17.2345 39.5857 17.2345 38.6438 18.1754L23.2943 33.5249C21.4105 35.4087 18.3559 35.4087 16.4721 33.5249C15.5308 32.5836 14.0038 32.5836 13.0619 33.5249C12.1186 34.4672 12.1186 35.9946 13.0619 36.9355C16.8285 40.7037 22.9379 40.7037 26.7061 36.9355L42.0554 21.5866C42.9967 20.6453 42.9967 19.1169 42.0554 18.1754ZM47.1725 13.0595C43.4043 9.29185 37.2955 9.29185 33.5283 13.0595L18.1778 28.4094C17.2359 29.3503 17.2359 30.8787 18.1778 31.82C19.1203 32.7625 20.6477 32.7625 21.589 31.82L36.9385 16.4705C38.8217 14.5863 41.8769 14.5863 43.7603 16.4705C45.6441 18.3545 45.6441 21.4085 43.7603 23.2925L28.7063 38.3469C30.5901 40.2301 33.6433 40.2301 35.5287 38.3469L47.1725 26.7035C50.9397 22.9349 50.9397 16.8271 47.1725 13.0595Z" fill="#1A1918"/>
</g>
<defs>
<clipPath id="clip0_10_579">
<rect width="50" height="39.84" fill="white"/>
</clipPath>
</defs>
</svg>
